<svg width="90" height="108" viewBox="0 0 90 108" fill="none" xmlns="http://www.w3.org/2000/svg">
<path d="M18.1033 107.333H0.401558V61.0583H50.5038C62.4581 61.0583 72.1821 51.3343 72.1821 39.38C72.1821 27.4258 62.4581 17.7018 50.5038 17.7018H0.247559V0H50.5038C72.2178 0 89.8838 17.666 89.8838 39.38C89.8838 61.094 72.2178 78.76 50.5038 78.76H18.1033V107.333Z" fill="white"/>
<path d="M49.8603 47.6876H0V29.9858H49.8603C54.7498 29.9858 58.7125 33.9486 58.7125 38.8381C58.7125 43.7276 54.7498 47.6903 49.8603 47.6903V47.6876Z" fill="white"/>
<path d="M84.0565 107.616L61.8613 65.2412L46.1808 73.4555L64.0723 107.616H84.0565Z" fill="white"/>
</svg>
